<?xml version="1.0" encoding="UTF-8"?>
<svg width="785px" height="269px" viewBox="0 0 785 269" version="1.1" xmlns="http://www.w3.org/2000/svg" xmlns:xlink="http://www.w3.org/1999/xlink">
    <!-- Generator: Sketch 46.2 (44496) - http://www.bohemiancoding.com/sketch -->
    <title>Group 3</title>
    <desc>Created with Sketch.</desc>
    <defs></defs>
    <g id="Page-1" stroke="none" stroke-width="1" fill="none" fill-rule="evenodd">
        <g id="Group-2">
            <g id="Group-3">
                <g id="FU_Logo-03">
                    <path d="M84.024,13.794 C45.171,13.794 13.562,45.402 13.562,84.255 C13.562,123.108 45.171,154.716 84.024,154.716 C122.876,154.716 154.485,123.108 154.485,84.255 C154.485,45.402 122.876,13.794 84.024,13.794 Z M84.024,167.869 C37.918,167.869 0.409,130.36 0.409,84.255 C0.409,38.15 37.918,0.641 84.024,0.641 C130.129,0.641 167.638,38.15 167.638,84.255 C167.638,130.36 130.129,167.869 84.024,167.869 L84.024,167.869 Z" id="Fill-1" fill="#DF5336"></path>
                    <polyline id="Fill-2" fill="#DF5336" points="58.579 41.176 121.125 41.176 121.125 63.122 82.583 63.122 82.583 79.992 118.382 79.992 118.382 101.938 82.583 101.938 82.583 131.016 58.579 131.016 58.579 41.176"></polyline>
                    <polyline id="Fill-3" fill="#323C4B" points="238.124 8.902 285.366 8.902 285.366 23.981 254.681 23.981 254.681 39.272 283.258 39.272 283.258 54.351 254.681 54.351 254.681 77.972 238.124 77.972 238.124 8.902"></polyline>
                    <path d="M314.263,23.981 L314.263,42.435 L328.815,42.435 C334.404,42.435 337.145,38.428 337.145,32.84 C337.145,27.46 334.298,23.981 328.815,23.981 L314.263,23.981 Z M297.706,77.972 L297.706,8.902 L331.661,8.902 C345.37,8.902 354.123,18.076 354.123,31.783 C354.123,41.171 350.959,49.079 344.738,53.612 C346.531,55.828 348.007,58.359 349.167,61.1 L356.232,77.972 L338.41,77.972 L333.771,65.741 C332.189,61.944 330.08,58.359 326.284,57.619 L314.263,57.619 L314.263,77.972 L297.706,77.972 L297.706,77.972 Z" id="Fill-4" fill="#323C4B"></path>
                    <path d="M415.71,43.49 C415.71,32.205 409.487,23.137 398.204,23.137 C386.921,23.137 380.805,32.205 380.805,43.49 C380.805,54.669 387.027,63.737 398.204,63.737 C409.487,63.737 415.71,54.773 415.71,43.49 Z M363.828,43.49 C363.828,22.61 377.326,7.531 398.204,7.531 C419.084,7.531 432.687,22.61 432.687,43.49 C432.687,64.368 419.084,79.343 398.204,79.343 C377.43,79.343 363.828,64.263 363.828,43.49 L363.828,43.49 Z" id="Fill-5" fill="#323C4B"></path>
                    <polyline id="Fill-6" fill="#323C4B" points="444.501 8.902 461.056 8.902 487.946 51.399 487.946 8.902 504.502 8.902 504.502 77.972 487.946 77.972 461.056 35.582 461.056 77.972 444.501 77.972 444.501 8.902"></polyline>
                    <polyline id="Fill-7" fill="#323C4B" points="514.839 8.902 573.576 8.902 573.576 23.981 552.591 23.981 552.591 77.972 536.035 77.972 536.035 23.981 514.839 23.981 514.839 8.902"></polyline>
                    <polyline id="Fill-8" fill="#323C4B" points="584.018 8.902 633.896 8.902 633.896 23.981 600.574 23.981 600.574 35.897 631.788 35.897 631.788 50.977 600.574 50.977 600.574 62.893 634.213 62.893 634.213 77.972 584.018 77.972 584.018 8.902"></polyline>
                    <polyline id="Fill-9" fill="#323C4B" points="647.289 8.902 663.848 8.902 690.737 51.399 690.737 8.902 707.291 8.902 707.291 77.972 690.737 77.972 663.848 35.582 663.848 77.972 647.289 77.972 647.289 8.902"></polyline>
                    <path d="M739.038,23.981 L739.038,62.893 L749.792,62.893 C760.761,62.893 767.404,54.456 767.404,43.384 C767.404,32.418 760.866,23.981 749.898,23.981 L739.038,23.981 Z M722.481,8.902 L749.898,8.902 C770.356,8.902 784.381,22.928 784.381,43.384 C784.381,63.841 770.252,77.972 749.792,77.972 L722.481,77.972 L722.481,8.902 L722.481,8.902 Z" id="Fill-10" fill="#323C4B"></path>
                    <path d="M248.775,95.916 L248.775,139.468 C248.775,152.122 257.844,157.498 267.862,157.498 C277.669,157.498 285.894,151.806 285.894,139.468 L285.894,95.916 L295.279,95.916 L295.279,140.099 C295.279,157.711 282.941,166.357 267.862,166.357 C252.36,166.357 239.39,158.027 239.39,140.099 L239.39,95.916 L248.775,95.916" id="Fill-11" fill="#323C4B"></path>
                    <polyline id="Fill-12" fill="#323C4B" points="313.736 95.916 323.122 95.916 360.663 150.645 360.663 95.916 370.047 95.916 370.047 164.987 360.663 164.987 323.122 110.362 323.122 164.987 313.736 164.987 313.736 95.916"></polyline>
                    <polygon id="Fill-13" fill="#323C4B" points="389.242 164.987 398.627 164.987 398.627 95.916 389.242 95.916"></polygon>
                    <polyline id="Fill-14" fill="#323C4B" points="411.071 95.916 468.015 95.916 468.015 104.564 444.394 104.564 444.394 164.987 435.008 164.987 435.008 104.564 411.071 104.564 411.071 95.916"></polyline>
                    <polyline id="Fill-15" fill="#323C4B" points="480.46 95.916 527.702 95.916 527.702 104.564 489.845 104.564 489.845 125.653 525.594 125.653 525.594 134.194 489.845 134.194 489.845 156.338 528.018 156.338 528.018 164.987 480.46 164.987 480.46 95.916"></polyline>
                    <path d="M553.329,104.564 L553.329,156.338 L569.04,156.338 C584.225,156.338 593.611,145.479 593.611,130.398 C593.611,115.423 584.647,104.564 569.673,104.564 L553.329,104.564 Z M543.943,95.916 L569.673,95.916 C590.025,95.916 603.313,109.94 603.313,130.398 C603.313,150.962 589.709,164.987 569.04,164.987 L543.943,164.987 L543.943,95.916 L543.943,95.916 Z" id="Fill-16" fill="#323C4B"></path>
                    <polygon id="Fill-17" fill="#323C4B" points="191.449 159.414 204.602 159.414 204.602 9.096 191.449 9.096"></polygon>
                </g>
                <g id="Utrecht" transform="translate(184.000000, 178.000000)"></g>
                <text id="Utrecht" font-family="Raleway-Light, Raleway" font-size="96" font-weight="300" fill="#323C4B">
                    <tspan x="184" y="268">Utrecht</tspan>
                </text>
                <text id="2018" font-family="Raleway-Light, Raleway" font-size="96" font-weight="300" fill="#323C4B">
                    <tspan x="586" y="268">2018</tspan>
                </text>
                <path d="M547.222222,198 L547.222222,268" id="Line" stroke-opacity="0.303640172" stroke="#323C4B" stroke-width="2" stroke-linecap="square"></path>
            </g>
        </g>
    </g>
</svg>