<?xml version="1.0" encoding="UTF-8"?>
<svg width="785px" height="168px" viewBox="0 0 785 168" version="1.1" xmlns="http://www.w3.org/2000/svg" xmlns:xlink="http://www.w3.org/1999/xlink">
    <!-- Generator: Sketch 46.2 (44496) - http://www.bohemiancoding.com/sketch -->
    <title>Group 5</title>
    <desc>Created with Sketch.</desc>
    <defs></defs>
    <g id="Page-1" stroke="none" stroke-width="1" fill="none" fill-rule="evenodd">
        <g id="Group-5" fill="#FFFFFE">
            <path d="M84.209,13.757 C45.356,13.757 13.747,45.366 13.747,84.219 C13.747,123.071 45.356,154.68 84.209,154.68 C123.062,154.68 154.67,123.071 154.67,84.219 C154.67,45.366 123.062,13.757 84.209,13.757 Z M84.209,167.833 C38.103,167.833 0.595,130.323 0.595,84.219 C0.595,38.114 38.103,0.604 84.209,0.604 C130.314,0.604 167.82,38.114 167.82,84.219 C167.82,130.323 130.314,167.833 84.209,167.833 L84.209,167.833 Z" id="Fill-38"></path>
            <polyline id="Fill-39" points="58.765 41.14 121.31 41.14 121.31 63.086 82.768 63.086 82.768 79.956 118.567 79.956 118.567 101.902 82.768 101.902 82.768 130.98 58.765 130.98 58.765 41.14"></polyline>
            <polyline id="Fill-40" points="238.31 8.865 285.55 8.865 285.55 23.945 254.87 23.945 254.87 39.235 283.44 39.235 283.44 54.315 254.87 54.315 254.87 77.936 238.31 77.936 238.31 8.865"></polyline>
            <path d="M314.45,23.945 L314.45,42.399 L329,42.399 C334.59,42.399 337.33,38.391 337.33,32.804 C337.33,27.424 334.48,23.945 329,23.945 L314.45,23.945 Z M297.89,77.936 L297.89,8.865 L331.85,8.865 C345.56,8.865 354.31,18.04 354.31,31.747 C354.31,41.134 351.14,49.043 344.92,53.575 C346.72,55.792 348.19,58.322 349.35,61.064 L356.42,77.936 L338.6,77.936 L333.96,65.704 C332.37,61.908 330.27,58.322 326.47,57.583 L314.45,57.583 L314.45,77.936 L297.89,77.936 L297.89,77.936 Z" id="Fill-41"></path>
            <path d="M415.89,43.454 C415.89,32.169 409.67,23.101 398.39,23.101 C387.11,23.101 380.99,32.169 380.99,43.454 C380.99,54.632 387.21,63.7 398.39,63.7 C409.67,63.7 415.89,54.737 415.89,43.454 Z M364.01,43.454 C364.01,22.574 377.51,7.495 398.39,7.495 C419.27,7.495 432.87,22.574 432.87,43.454 C432.87,64.332 419.27,79.306 398.39,79.306 C377.62,79.306 364.01,64.227 364.01,43.454 L364.01,43.454 Z" id="Fill-42"></path>
            <polyline id="Fill-43" points="444.69 8.865 461.24 8.865 488.13 51.362 488.13 8.865 504.69 8.865 504.69 77.936 488.13 77.936 461.24 35.545 461.24 77.936 444.69 77.936 444.69 8.865"></polyline>
            <polyline id="Fill-44" points="515.02 8.865 573.76 8.865 573.76 23.945 552.78 23.945 552.78 77.936 536.22 77.936 536.22 23.945 515.02 23.945 515.02 8.865"></polyline>
            <polyline id="Fill-45" points="584.2 8.865 634.08 8.865 634.08 23.945 600.76 23.945 600.76 35.861 631.97 35.861 631.97 50.94 600.76 50.94 600.76 62.856 634.4 62.856 634.4 77.936 584.2 77.936 584.2 8.865"></polyline>
            <polyline id="Fill-46" points="647.47 8.865 664.03 8.865 690.92 51.362 690.92 8.865 707.48 8.865 707.48 77.936 690.92 77.936 664.03 35.545 664.03 77.936 647.47 77.936 647.47 8.865"></polyline>
            <path d="M739.22,23.945 L739.22,62.856 L749.98,62.856 C760.95,62.856 767.59,54.419 767.59,43.347 C767.59,32.382 761.05,23.945 750.08,23.945 L739.22,23.945 Z M722.67,8.865 L750.08,8.865 C770.54,8.865 784.57,22.891 784.57,43.347 C784.57,63.805 770.44,77.936 749.98,77.936 L722.67,77.936 L722.67,8.865 L722.67,8.865 Z" id="Fill-47"></path>
            <path d="M248.96,95.88 L248.96,139.432 C248.96,152.085 258.03,157.462 268.05,157.462 C277.85,157.462 286.08,151.77 286.08,139.432 L286.08,95.88 L295.46,95.88 L295.46,140.063 C295.46,157.675 283.13,166.321 268.05,166.321 C252.55,166.321 239.58,157.99 239.58,140.063 L239.58,95.88 L248.96,95.88" id="Fill-48"></path>
            <polyline id="Fill-49" points="313.92 95.88 323.31 95.88 360.85 150.608 360.85 95.88 370.23 95.88 370.23 164.95 360.85 164.95 323.31 110.326 323.31 164.95 313.92 164.95 313.92 95.88"></polyline>
            <polygon id="Fill-50" points="389.43 164.95 398.81 164.95 398.81 95.88 389.43 95.88"></polygon>
            <polyline id="Fill-51" points="411.26 95.88 468.2 95.88 468.2 104.528 444.58 104.528 444.58 164.95 435.19 164.95 435.19 104.528 411.26 104.528 411.26 95.88"></polyline>
            <polyline id="Fill-52" points="480.65 95.88 527.89 95.88 527.89 104.528 490.03 104.528 490.03 125.617 525.78 125.617 525.78 134.158 490.03 134.158 490.03 156.302 528.2 156.302 528.2 164.95 480.65 164.95 480.65 95.88"></polyline>
            <path d="M553.51,104.528 L553.51,156.302 L569.23,156.302 C584.41,156.302 593.8,145.443 593.8,130.362 C593.8,115.387 584.83,104.528 569.86,104.528 L553.51,104.528 Z M544.13,95.88 L569.86,95.88 C590.21,95.88 603.5,109.904 603.5,130.362 C603.5,150.926 589.89,164.95 569.23,164.95 L544.13,164.95 L544.13,95.88 L544.13,95.88 Z" id="Fill-53"></path>
            <polygon id="Fill-54" points="191.63 159.377 204.79 159.377 204.79 9.06 191.63 9.06"></polygon>
        </g>
    </g>
</svg>