<?xml version="1.0" encoding="UTF-8"?>
<svg width="785px" height="168px" viewBox="0 0 785 168" version="1.1" xmlns="http://www.w3.org/2000/svg" xmlns:xlink="http://www.w3.org/1999/xlink">
    <!-- Generator: Sketch 46.2 (44496) - http://www.bohemiancoding.com/sketch -->
    <title>Group 4</title>
    <desc>Created with Sketch.</desc>
    <defs></defs>
    <g id="Page-1" stroke="none" stroke-width="1" fill="none" fill-rule="evenodd">
        <g id="Group-4">
            <g id="Group" fill="#DF5336">
                <path d="M84.154,13.924 C45.301,13.924 13.692,45.532 13.692,84.385 C13.692,123.238 45.301,154.846 84.154,154.846 C123.007,154.846 154.615,123.238 154.615,84.385 C154.615,45.532 123.007,13.924 84.154,13.924 Z M84.154,168 C38.048,168 0.539,130.49 0.539,84.385 C0.539,38.281 38.048,0.771 84.154,0.771 C130.259,0.771 167.768,38.281 167.768,84.385 C167.768,130.49 130.259,168 84.154,168 L84.154,168 Z" id="Fill-20"></path>
                <polyline id="Fill-21" points="58.71 41.306 121.255 41.306 121.255 63.252 82.713 63.252 82.713 80.122 118.512 80.122 118.512 102.068 82.713 102.068 82.713 131.146 58.71 131.146 58.71 41.306"></polyline>
            </g>
            <polyline id="Fill-22" fill="#323C4B" points="238.254 9.032 285.496 9.032 285.496 24.111 254.811 24.111 254.811 39.402 283.388 39.402 283.388 54.481 254.811 54.481 254.811 78.102 238.254 78.102 238.254 9.032"></polyline>
            <path d="M314.393,24.111 L314.393,42.565 L328.945,42.565 C334.534,42.565 337.275,38.558 337.275,32.97 C337.275,27.59 334.428,24.111 328.945,24.111 L314.393,24.111 Z M297.836,78.102 L297.836,9.032 L331.792,9.032 C345.5,9.032 354.253,18.206 354.253,31.913 C354.253,41.301 351.09,49.209 344.868,53.742 C346.661,55.958 348.137,58.489 349.297,61.23 L356.362,78.102 L338.54,78.102 L333.901,65.871 C332.319,62.074 330.21,58.489 326.414,57.749 L314.393,57.749 L314.393,78.102 L297.836,78.102 L297.836,78.102 Z" id="Fill-23" fill="#323C4B"></path>
            <path d="M415.84,43.62 C415.84,32.335 409.618,23.267 398.335,23.267 C387.052,23.267 380.935,32.335 380.935,43.62 C380.935,54.799 387.157,63.867 398.335,63.867 C409.618,63.867 415.84,54.903 415.84,43.62 Z M363.958,43.62 C363.958,22.74 377.456,7.661 398.335,7.661 C419.214,7.661 432.818,22.74 432.818,43.62 C432.818,64.498 419.214,79.473 398.335,79.473 C377.56,79.473 363.958,64.393 363.958,43.62 L363.958,43.62 Z" id="Fill-24" fill="#323C4B"></path>
            <polyline id="Fill-25" fill="#323C4B" points="444.631 9.032 461.186 9.032 488.076 51.529 488.076 9.032 504.632 9.032 504.632 78.102 488.076 78.102 461.186 35.712 461.186 78.102 444.631 78.102 444.631 9.032"></polyline>
            <polyline id="Fill-26" fill="#323C4B" points="514.969 9.032 573.706 9.032 573.706 24.111 552.721 24.111 552.721 78.102 536.165 78.102 536.165 24.111 514.969 24.111 514.969 9.032"></polyline>
            <polyline id="Fill-27" fill="#323C4B" points="584.148 9.032 634.026 9.032 634.026 24.111 600.704 24.111 600.704 36.027 631.918 36.027 631.918 51.107 600.704 51.107 600.704 63.023 634.344 63.023 634.344 78.102 584.148 78.102 584.148 9.032"></polyline>
            <polyline id="Fill-28" fill="#323C4B" points="647.419 9.032 663.978 9.032 690.867 51.529 690.867 9.032 707.422 9.032 707.422 78.102 690.867 78.102 663.978 35.712 663.978 78.102 647.419 78.102 647.419 9.032"></polyline>
            <path d="M739.168,24.111 L739.168,63.023 L749.922,63.023 C760.891,63.023 767.534,54.586 767.534,43.514 C767.534,32.548 760.996,24.111 750.029,24.111 L739.168,24.111 Z M722.611,9.032 L750.029,9.032 C770.486,9.032 784.511,23.058 784.511,43.514 C784.511,63.971 770.382,78.102 749.922,78.102 L722.611,78.102 L722.611,9.032 L722.611,9.032 Z" id="Fill-29" fill="#323C4B"></path>
            <path d="M248.905,96.046 L248.905,139.598 C248.905,152.252 257.974,157.63 267.992,157.63 C277.799,157.63 286.024,151.936 286.024,139.598 L286.024,96.046 L295.409,96.046 L295.409,140.229 C295.409,157.84 283.071,166.49 267.992,166.49 C252.49,166.49 239.52,158.16 239.52,140.229 L239.52,96.046 L248.905,96.046" id="Fill-30" fill="#323C4B"></path>
            <polyline id="Fill-31" fill="#323C4B" points="313.866 96.046 323.252 96.046 360.793 150.775 360.793 96.046 370.177 96.046 370.177 165.12 360.793 165.12 323.252 110.492 323.252 165.12 313.866 165.12 313.866 96.046"></polyline>
            <polygon id="Fill-32" fill="#323C4B" points="389.372 165.12 398.757 165.12 398.757 96.046 389.372 96.046"></polygon>
            <polyline id="Fill-33" fill="#323C4B" points="411.201 96.046 468.145 96.046 468.145 104.694 444.524 104.694 444.524 165.12 435.139 165.12 435.139 104.694 411.201 104.694 411.201 96.046"></polyline>
            <polyline id="Fill-34" fill="#323C4B" points="480.59 96.046 527.832 96.046 527.832 104.694 489.976 104.694 489.976 125.783 525.724 125.783 525.724 134.325 489.976 134.325 489.976 156.468 528.149 156.468 528.149 165.12 480.59 165.12 480.59 96.046"></polyline>
            <path d="M553.459,104.694 L553.459,156.468 L569.17,156.468 C584.355,156.468 593.741,145.609 593.741,130.528 C593.741,115.553 584.777,104.694 569.803,104.694 L553.459,104.694 Z M544.073,96.046 L569.803,96.046 C590.156,96.046 603.443,110.07 603.443,130.528 C603.443,151.092 589.839,165.12 569.17,165.12 L544.073,165.12 L544.073,96.046 L544.073,96.046 Z" id="Fill-35" fill="#323C4B"></path>
            <polygon id="Fill-36" fill="#323C4B" points="191.579 159.54 204.732 159.54 204.732 9.226 191.579 9.226"></polygon>
        </g>
    </g>
</svg>