<?xml version="1.0" encoding="UTF-8"?>
<svg width="784px" height="168px" viewBox="0 0 784 168" version="1.1" xmlns="http://www.w3.org/2000/svg" xmlns:xlink="http://www.w3.org/1999/xlink">
    <!-- Generator: Sketch 46.2 (44496) - http://www.bohemiancoding.com/sketch -->
    <title>Group 2</title>
    <desc>Created with Sketch.</desc>
    <defs>
        <polygon id="path-1" points="0.06 0.604 0.06 167.833 167.228 167.833 167.228 0.604 0.06 0.604"></polygon>
    </defs>
    <g id="Page-1" stroke="none" stroke-width="1" fill="none" fill-rule="evenodd">
        <g id="Group-2">
            <g id="Group-3">
                <mask id="mask-2" fill="white">
                    <use xlink:href="#path-1"></use>
                </mask>
                <g id="Clip-2"></g>
                <path d="M83.614,13.757 C44.761,13.757 13.153,45.366 13.153,84.219 C13.153,123.071 44.761,154.68 83.614,154.68 C122.467,154.68 154.076,123.071 154.076,84.219 C154.076,45.366 122.467,13.757 83.614,13.757 Z M83.614,167.833 C37.509,167.833 0,130.323 0,84.219 C0,38.114 37.509,0.604 83.614,0.604 C129.72,0.604 167.228,38.114 167.228,84.219 C167.228,130.323 129.72,167.833 83.614,167.833 L83.614,167.833 Z" id="Fill-1" fill="#343534" mask="url(#mask-2)"></path>
            </g>
            <polyline id="Fill-4" fill="#343534" points="58.17 41.14 120.716 41.14 120.716 63.086 82.174 63.086 82.174 79.956 117.972 79.956 117.972 101.902 82.174 101.902 82.174 130.98 58.17 130.98 58.17 41.14"></polyline>
            <polyline id="Fill-5" fill="#343534" points="237.715 8.865 284.957 8.865 284.957 23.945 254.271 23.945 254.271 39.235 282.848 39.235 282.848 54.315 254.271 54.315 254.271 77.936 237.715 77.936 237.715 8.865"></polyline>
            <path d="M313.853,23.945 L313.853,42.399 L328.405,42.399 C333.994,42.399 336.736,38.391 336.736,32.804 C336.736,27.424 333.889,23.945 328.405,23.945 L313.853,23.945 Z M297.297,77.936 L297.297,8.865 L331.252,8.865 C344.961,8.865 353.714,18.04 353.714,31.747 C353.714,41.134 350.55,49.043 344.329,53.575 C346.121,55.792 347.598,58.322 348.757,61.064 L355.823,77.936 L338.001,77.936 L333.361,65.704 C331.78,61.908 329.67,58.322 325.875,57.583 L313.853,57.583 L313.853,77.936 L297.297,77.936 L297.297,77.936 Z" id="Fill-6" fill="#343534"></path>
            <path d="M415.3,43.454 C415.3,32.169 409.078,23.101 397.795,23.101 C386.512,23.101 380.395,32.169 380.395,43.454 C380.395,54.632 386.618,63.7 397.795,63.7 C409.078,63.7 415.3,54.737 415.3,43.454 Z M363.418,43.454 C363.418,22.574 376.916,7.495 397.795,7.495 C418.675,7.495 432.278,22.574 432.278,43.454 C432.278,64.332 418.675,79.306 397.795,79.306 C377.021,79.306 363.418,64.227 363.418,43.454 L363.418,43.454 Z" id="Fill-7" fill="#343534"></path>
            <polyline id="Fill-8" fill="#343534" points="444.091 8.865 460.647 8.865 487.537 51.362 487.537 8.865 504.093 8.865 504.093 77.936 487.537 77.936 460.647 35.545 460.647 77.936 444.091 77.936 444.091 8.865"></polyline>
            <polyline id="Fill-9" fill="#343534" points="514.43 8.865 573.167 8.865 573.167 23.945 552.182 23.945 552.182 77.936 535.626 77.936 535.626 23.945 514.43 23.945 514.43 8.865"></polyline>
            <polyline id="Fill-10" fill="#343534" points="583.609 8.865 633.487 8.865 633.487 23.945 600.164 23.945 600.164 35.861 631.378 35.861 631.378 50.94 600.164 50.94 600.164 62.856 633.804 62.856 633.804 77.936 583.609 77.936 583.609 8.865"></polyline>
            <polyline id="Fill-11" fill="#343534" points="646.88 8.865 663.438 8.865 690.327 51.362 690.327 8.865 706.882 8.865 706.882 77.936 690.327 77.936 663.438 35.545 663.438 77.936 646.88 77.936 646.88 8.865"></polyline>
            <path d="M738.628,23.945 L738.628,62.856 L749.383,62.856 C760.352,62.856 766.994,54.419 766.994,43.347 C766.994,32.382 760.457,23.945 749.489,23.945 L738.628,23.945 Z M722.072,8.865 L749.489,8.865 C769.947,8.865 783.971,22.891 783.971,43.347 C783.971,63.805 769.842,77.936 749.383,77.936 L722.072,77.936 L722.072,8.865 L722.072,8.865 Z" id="Fill-12" fill="#343534"></path>
            <path d="M248.365,95.88 L248.365,139.432 C248.365,152.085 257.435,157.462 267.452,157.462 C277.259,157.462 285.484,151.77 285.484,139.432 L285.484,95.88 L294.87,95.88 L294.87,140.063 C294.87,157.675 282.532,166.321 267.452,166.321 C251.951,166.321 238.981,157.99 238.981,140.063 L238.981,95.88 L248.365,95.88" id="Fill-13" fill="#343534"></path>
            <polyline id="Fill-14" fill="#343534" points="313.327 95.88 322.712 95.88 360.253 150.608 360.253 95.88 369.638 95.88 369.638 164.95 360.253 164.95 322.712 110.326 322.712 164.95 313.327 164.95 313.327 95.88"></polyline>
            <polygon id="Fill-15" fill="#343534" points="388.832 164.95 398.218 164.95 398.218 95.88 388.832 95.88"></polygon>
            <polyline id="Fill-16" fill="#343534" points="410.662 95.88 467.606 95.88 467.606 104.528 443.985 104.528 443.985 164.95 434.599 164.95 434.599 104.528 410.662 104.528 410.662 95.88"></polyline>
            <polyline id="Fill-17" fill="#343534" points="480.05 95.88 527.293 95.88 527.293 104.528 489.436 104.528 489.436 125.617 525.184 125.617 525.184 134.158 489.436 134.158 489.436 156.302 527.609 156.302 527.609 164.95 480.05 164.95 480.05 95.88"></polyline>
            <path d="M552.919,104.528 L552.919,156.302 L568.631,156.302 C583.816,156.302 593.202,145.443 593.202,130.362 C593.202,115.387 584.238,104.528 569.264,104.528 L552.919,104.528 Z M543.534,95.88 L569.264,95.88 C589.616,95.88 602.904,109.904 602.904,130.362 C602.904,150.926 589.3,164.95 568.631,164.95 L543.534,164.95 L543.534,95.88 L543.534,95.88 Z" id="Fill-18" fill="#343534"></path>
            <polygon id="Fill-19" fill="#343534" points="191.039 159.377 204.192 159.377 204.192 9.06 191.039 9.06"></polygon>
        </g>
    </g>
</svg>