<?xml version="1.0" encoding="UTF-8"?>
<svg width="785px" height="269px" viewBox="0 0 785 269" version="1.1" xmlns="http://www.w3.org/2000/svg" xmlns:xlink="http://www.w3.org/1999/xlink">
    <!-- Generator: Sketch 46.2 (44496) - http://www.bohemiancoding.com/sketch -->
    <title>logo-2018</title>
    <desc>Created with Sketch.</desc>
    <defs></defs>
    <g id="Page-1" stroke="none" stroke-width="1" fill="none" fill-rule="evenodd">
        <g id="logo-2018">
            <g id="FU_Logo-03" fill-rule="nonzero">
                <path d="M84.024,13.794 C45.171,13.794 13.562,45.402 13.562,84.255 C13.562,123.108 45.171,154.716 84.024,154.716 C122.876,154.716 154.485,123.108 154.485,84.255 C154.485,45.402 122.876,13.794 84.024,13.794 Z M84.024,167.869 C37.918,167.869 0.409,130.36 0.409,84.255 C0.409,38.15 37.918,0.641 84.024,0.641 C130.129,0.641 167.638,38.15 167.638,84.255 C167.638,130.36 130.129,167.869 84.024,167.869 L84.024,167.869 Z" id="Fill-1" fill="#DF5336"></path>
                <polyline id="Fill-2" fill="#DF5336" points="58.579 41.176 121.125 41.176 121.125 63.122 82.583 63.122 82.583 79.992 118.382 79.992 118.382 101.938 82.583 101.938 82.583 131.016 58.579 131.016 58.579 41.176"></polyline>
                <polyline id="Fill-3" fill="#323C4B" points="238.124 8.902 285.366 8.902 285.366 23.981 254.681 23.981 254.681 39.272 283.258 39.272 283.258 54.351 254.681 54.351 254.681 77.972 238.124 77.972 238.124 8.902"></polyline>
                <path d="M314.263,23.981 L314.263,42.435 L328.815,42.435 C334.404,42.435 337.145,38.428 337.145,32.84 C337.145,27.46 334.298,23.981 328.815,23.981 L314.263,23.981 Z M297.706,77.972 L297.706,8.902 L331.661,8.902 C345.37,8.902 354.123,18.076 354.123,31.783 C354.123,41.171 350.959,49.079 344.738,53.612 C346.531,55.828 348.007,58.359 349.167,61.1 L356.232,77.972 L338.41,77.972 L333.771,65.741 C332.189,61.944 330.08,58.359 326.284,57.619 L314.263,57.619 L314.263,77.972 L297.706,77.972 L297.706,77.972 Z" id="Fill-4" fill="#323C4B"></path>
                <path d="M415.71,43.49 C415.71,32.205 409.487,23.137 398.204,23.137 C386.921,23.137 380.805,32.205 380.805,43.49 C380.805,54.669 387.027,63.737 398.204,63.737 C409.487,63.737 415.71,54.773 415.71,43.49 Z M363.828,43.49 C363.828,22.61 377.326,7.531 398.204,7.531 C419.084,7.531 432.687,22.61 432.687,43.49 C432.687,64.368 419.084,79.343 398.204,79.343 C377.43,79.343 363.828,64.263 363.828,43.49 L363.828,43.49 Z" id="Fill-5" fill="#323C4B"></path>
                <polyline id="Fill-6" fill="#323C4B" points="444.501 8.902 461.056 8.902 487.946 51.399 487.946 8.902 504.502 8.902 504.502 77.972 487.946 77.972 461.056 35.582 461.056 77.972 444.501 77.972 444.501 8.902"></polyline>
                <polyline id="Fill-7" fill="#323C4B" points="514.839 8.902 573.576 8.902 573.576 23.981 552.591 23.981 552.591 77.972 536.035 77.972 536.035 23.981 514.839 23.981 514.839 8.902"></polyline>
                <polyline id="Fill-8" fill="#323C4B" points="584.018 8.902 633.896 8.902 633.896 23.981 600.574 23.981 600.574 35.897 631.788 35.897 631.788 50.977 600.574 50.977 600.574 62.893 634.213 62.893 634.213 77.972 584.018 77.972 584.018 8.902"></polyline>
                <polyline id="Fill-9" fill="#323C4B" points="647.289 8.902 663.848 8.902 690.737 51.399 690.737 8.902 707.291 8.902 707.291 77.972 690.737 77.972 663.848 35.582 663.848 77.972 647.289 77.972 647.289 8.902"></polyline>
                <path d="M739.038,23.981 L739.038,62.893 L749.792,62.893 C760.761,62.893 767.404,54.456 767.404,43.384 C767.404,32.418 760.866,23.981 749.898,23.981 L739.038,23.981 Z M722.481,8.902 L749.898,8.902 C770.356,8.902 784.381,22.928 784.381,43.384 C784.381,63.841 770.252,77.972 749.792,77.972 L722.481,77.972 L722.481,8.902 L722.481,8.902 Z" id="Fill-10" fill="#323C4B"></path>
                <path d="M248.775,95.916 L248.775,139.468 C248.775,152.122 257.844,157.498 267.862,157.498 C277.669,157.498 285.894,151.806 285.894,139.468 L285.894,95.916 L295.279,95.916 L295.279,140.099 C295.279,157.711 282.941,166.357 267.862,166.357 C252.36,166.357 239.39,158.027 239.39,140.099 L239.39,95.916 L248.775,95.916" id="Fill-11" fill="#323C4B"></path>
                <polyline id="Fill-12" fill="#323C4B" points="313.736 95.916 323.122 95.916 360.663 150.645 360.663 95.916 370.047 95.916 370.047 164.987 360.663 164.987 323.122 110.362 323.122 164.987 313.736 164.987 313.736 95.916"></polyline>
                <polygon id="Fill-13" fill="#323C4B" points="389.242 164.987 398.627 164.987 398.627 95.916 389.242 95.916"></polygon>
                <polyline id="Fill-14" fill="#323C4B" points="411.071 95.916 468.015 95.916 468.015 104.564 444.394 104.564 444.394 164.987 435.008 164.987 435.008 104.564 411.071 104.564 411.071 95.916"></polyline>
                <polyline id="Fill-15" fill="#323C4B" points="480.46 95.916 527.702 95.916 527.702 104.564 489.845 104.564 489.845 125.653 525.594 125.653 525.594 134.194 489.845 134.194 489.845 156.338 528.018 156.338 528.018 164.987 480.46 164.987 480.46 95.916"></polyline>
                <path d="M553.329,104.564 L553.329,156.338 L569.04,156.338 C584.225,156.338 593.611,145.479 593.611,130.398 C593.611,115.423 584.647,104.564 569.673,104.564 L553.329,104.564 Z M543.943,95.916 L569.673,95.916 C590.025,95.916 603.313,109.94 603.313,130.398 C603.313,150.962 589.709,164.987 569.04,164.987 L543.943,164.987 L543.943,95.916 L543.943,95.916 Z" id="Fill-16" fill="#323C4B"></path>
                <polygon id="Fill-17" fill="#323C4B" points="191.449 159.414 204.602 159.414 204.602 9.096 191.449 9.096"></polygon>
            </g>
            <path d="M220.288,265.312 C225.152024,265.312 229.199984,264.400009 232.432,262.576 C235.664016,260.751991 238.207991,258.368015 240.064,255.424 C241.920009,252.479985 243.231996,249.136019 244,245.392 C244.768004,241.647981 245.152,237.856019 245.152,234.016 L245.152,199.84 L248.416,199.84 L248.416,234.016 C248.416,238.560023 247.936005,242.911979 246.976,247.072 C246.015995,251.232021 244.432011,254.895984 242.224,258.064 C240.015989,261.232016 237.136018,263.759991 233.584,265.648 C230.031982,267.536009 225.632026,268.48 220.384,268.48 C215.007973,268.48 210.512018,267.48801 206.896,265.504 C203.279982,263.51999 200.384011,260.912016 198.208,257.68 C196.031989,254.447984 194.480005,250.768021 193.552,246.64 C192.623995,242.511979 192.16,238.304021 192.16,234.016 L192.16,199.84 L195.52,199.84 L195.52,234.016 C195.52,237.98402 195.903996,241.839981 196.672,245.584 C197.440004,249.328019 198.78399,252.655985 200.704,255.568 C202.62401,258.480015 205.167984,260.831991 208.336,262.624 C211.504016,264.416009 215.487976,265.312 220.288,265.312 Z M285.088,265.696 C284.959999,265.76 284.640003,265.935999 284.128,266.224 C283.615997,266.512001 282.928004,266.831998 282.064,267.184 C281.199996,267.536002 280.208006,267.839999 279.088,268.096 C277.967994,268.352001 276.736007,268.48 275.392,268.48 C272.895988,268.48 270.736009,267.760007 268.912,266.32 C267.087991,264.879993 266.176,262.848013 266.176,260.224 L266.176,220.96 L259.072,220.96 L259.072,218.08 L266.176,218.08 L266.176,200.896 L269.44,200.896 L269.44,218.08 L281.248,218.08 L281.248,220.96 L269.44,220.96 L269.44,259.744 C269.568001,261.600009 270.271994,263.007995 271.552,263.968 C272.832006,264.928005 274.303992,265.408 275.968,265.408 C276.992005,265.408 277.967995,265.296001 278.896,265.072 C279.824005,264.847999 280.639996,264.592001 281.344,264.304 C282.048004,264.015999 282.623998,263.744001 283.072,263.488 C283.520002,263.231999 283.776,263.072 283.84,263.008 L285.088,265.696 Z M316.192,221.152 C311.583977,221.344001 307.584017,222.799986 304.192,225.52 C300.799983,228.240014 298.432007,231.935977 297.088,236.608 L297.088,268 L293.824,268 L293.824,218.08 L296.992,218.08 L296.992,230.752 C298.720009,227.231982 301.023986,224.352011 303.904,222.112 C306.784014,219.871989 309.855984,218.560002 313.12,218.176 C313.760003,218.112 314.351997,218.08 314.896,218.08 L316.192,218.08 L316.192,221.152 Z M343.84,268.96 C340.447983,268.96 337.280015,268.272007 334.336,266.896 C331.391985,265.519993 328.816011,263.632012 326.608,261.232 C324.399989,258.831988 322.672006,256.048016 321.424,252.88 C320.175994,249.711984 319.552,246.336018 319.552,242.752 C319.552,239.231982 320.159994,235.936015 321.376,232.864 C322.592006,229.791985 324.287989,227.104012 326.464,224.8 C328.640011,222.495988 331.167986,220.672007 334.048,219.328 C336.928014,217.983993 340.063983,217.312 343.456,217.312 C346.912017,217.312 350.111985,217.983993 353.056,219.328 C356.000015,220.672007 358.559989,222.511988 360.736,224.848 C362.912011,227.184012 364.623994,229.919984 365.872,233.056 C367.120006,236.192016 367.744,239.519982 367.744,243.04 L367.744,243.808 C367.744,244.192002 367.712,244.416 367.648,244.48 L322.912,244.48 C323.168001,247.552015 323.887994,250.415987 325.072,253.072 C326.256006,255.728013 327.791991,258.01599 329.68,259.936 C331.568009,261.85601 333.743988,263.375994 336.208,264.496 C338.672012,265.616006 341.279986,266.176 344.032,266.176 C345.824009,266.176 347.599991,265.936002 349.36,265.456 C351.120009,264.975998 352.767992,264.288004 354.304,263.392 C355.840008,262.495996 357.183994,261.424006 358.336,260.176 C359.488006,258.927994 360.415996,257.568007 361.12,256.096 L364.096,256.864 C363.391996,258.592009 362.368007,260.207992 361.024,261.712 C359.679993,263.216008 358.096009,264.495995 356.272,265.552 C354.447991,266.608005 352.480011,267.439997 350.368,268.048 C348.255989,268.656003 346.080011,268.96 343.84,268.96 Z M364.48,241.696 C364.287999,238.559984 363.616006,235.680013 362.464,233.056 C361.311994,230.431987 359.792009,228.16001 357.904,226.24 C356.015991,224.31999 353.856012,222.832005 351.424,221.776 C348.991988,220.719995 346.368014,220.192 343.552,220.192 C340.735986,220.192 338.112012,220.735995 335.68,221.824 C333.247988,222.912005 331.120009,224.41599 329.296,226.336 C327.471991,228.25601 326.000006,230.527987 324.88,233.152 C323.759994,235.776013 323.104001,238.623985 322.912,241.696 L364.48,241.696 Z M375.136,242.848 C375.136,239.263982 375.743994,235.920016 376.96,232.816 C378.176006,229.711984 379.871989,227.008012 382.048,224.704 C384.224011,222.399988 386.799985,220.592007 389.776,219.28 C392.752015,217.967993 395.967983,217.312 399.424,217.312 C403.776022,217.312 407.647983,218.31999 411.04,220.336 C414.432017,222.35201 416.959992,225.119982 418.624,228.64 L415.456,229.792 C413.855992,226.847985 411.616014,224.544008 408.736,222.88 C405.855986,221.215992 402.656018,220.384 399.136,220.384 C396.255986,220.384 393.552013,220.959994 391.024,222.112 C388.495987,223.264006 386.288009,224.84799 384.4,226.864 C382.511991,228.88001 381.040005,231.263986 379.984,234.016 C378.927995,236.768014 378.4,239.711984 378.4,242.848 C378.4,245.984016 378.959994,248.943986 380.08,251.728 C381.200006,254.512014 382.703991,256.959989 384.592,259.072 C386.480009,261.184011 388.687987,262.847994 391.216,264.064 C393.744013,265.280006 396.415986,265.888 399.232,265.888 C401.088009,265.888 402.927991,265.616003 404.752,265.072 C406.576009,264.527997 408.255992,263.808004 409.792,262.912 C411.328008,262.015996 412.655994,260.976006 413.776,259.792 C414.896006,258.607994 415.647998,257.344007 416.032,256 L419.296,256.96 C418.719997,258.688009 417.776007,260.287993 416.464,261.76 C415.151993,263.232007 413.616009,264.495995 411.856,265.552 C410.095991,266.608005 408.160011,267.439997 406.048,268.048 C403.935989,268.656003 401.760011,268.96 399.52,268.96 C396.127983,268.96 392.960015,268.272007 390.016,266.896 C387.071985,265.519993 384.496011,263.648012 382.288,261.28 C380.079989,258.911988 378.336006,256.144016 377.056,252.976 C375.775994,249.807984 375.136,246.432018 375.136,242.848 Z M470.368,268 L467.104,268 L467.104,240.16 C467.104,226.975934 462.720044,220.384 453.952,220.384 C451.711989,220.384 449.536011,220.799996 447.424,221.632 C445.311989,222.464004 443.360009,223.615993 441.568,225.088 C439.775991,226.560007 438.208007,228.30399 436.864,230.32 C435.519993,232.33601 434.528003,234.495988 433.888,236.8 L433.888,268 L430.624,268 L430.624,197.92 L433.888,197.92 L433.888,230.56 C434.912005,228.57599 436.175992,226.768008 437.68,225.136 C439.184008,223.503992 440.831991,222.112006 442.624,220.96 C444.416009,219.807994 446.31999,218.912003 448.336,218.272 C450.35201,217.631997 452.415989,217.312 454.528,217.312 C459.904027,217.312 463.887987,219.26398 466.48,223.168 C469.072013,227.07202 470.368,232.607964 470.368,239.776 L470.368,268 Z M505.6,265.696 C505.471999,265.76 505.152003,265.935999 504.64,266.224 C504.127997,266.512001 503.440004,266.831998 502.576,267.184 C501.711996,267.536002 500.720006,267.839999 499.6,268.096 C498.479994,268.352001 497.248007,268.48 495.904,268.48 C493.407988,268.48 491.248009,267.760007 489.424,266.32 C487.599991,264.879993 486.688,262.848013 486.688,260.224 L486.688,220.96 L479.584,220.96 L479.584,218.08 L486.688,218.08 L486.688,200.896 L489.952,200.896 L489.952,218.08 L501.76,218.08 L501.76,220.96 L489.952,220.96 L489.952,259.744 C490.080001,261.600009 490.783994,263.007995 492.064,263.968 C493.344006,264.928005 494.815992,265.408 496.48,265.408 C497.504005,265.408 498.479995,265.296001 499.408,265.072 C500.336005,264.847999 501.151996,264.592001 501.856,264.304 C502.560004,264.015999 503.135998,263.744001 503.584,263.488 C504.032002,263.231999 504.288,263.072 504.352,263.008 L505.6,265.696 Z" id="Utrecht" fill="#000000"></path>
            <path d="M590.416,268 C590.416,266.527993 590.559999,264.704011 590.848,262.528 C591.136001,260.351989 591.839994,258.064012 592.96,255.664 C594.080006,253.263988 595.711989,250.928011 597.856,248.656 C600.000011,246.383989 602.959981,244.416008 606.736,242.752 C608.528009,241.983996 610.46399,241.168004 612.544,240.304 C614.62401,239.439996 616.543991,238.400006 618.304,237.184 C620.064009,235.967994 621.535994,234.544008 622.72,232.912 C623.904006,231.279992 624.496,229.280012 624.496,226.912 C624.496,225.503993 624.192003,224.112007 623.584,222.736 C622.975997,221.359993 622.064006,220.128005 620.848,219.04 C619.631994,217.951995 618.112009,217.056004 616.288,216.352 C614.463991,215.647996 612.304012,215.296 609.808,215.296 C607.503988,215.296 605.424009,215.647996 603.568,216.352 C601.711991,217.056004 600.112007,217.871995 598.768,218.8 C597.423993,219.728005 596.320004,220.655995 595.456,221.584 C594.591996,222.512005 594.000002,223.167998 593.68,223.552 L591.376,221.344 C591.44,221.215999 591.935995,220.672005 592.864,219.712 C593.792005,218.751995 595.055992,217.712006 596.656,216.592 C598.256008,215.471994 600.191989,214.464004 602.464,213.568 C604.736011,212.671996 607.279986,212.224 610.096,212.224 C612.976014,212.224 615.535989,212.639996 617.776,213.472 C620.016011,214.304004 621.871993,215.391993 623.344,216.736 C624.816007,218.080007 625.935996,219.631991 626.704,221.392 C627.472004,223.152009 627.856,224.927991 627.856,226.72 C627.856,229.472014 627.216006,231.83999 625.936,233.824 C624.655994,235.80801 623.072009,237.503993 621.184,238.912 C619.295991,240.320007 617.280011,241.487995 615.136,242.416 C612.991989,243.344005 611.056009,244.159996 609.328,244.864 C606.255985,246.144006 603.74401,247.695991 601.792,249.52 C599.83999,251.344009 598.288006,253.23199 597.136,255.184 C595.983994,257.13601 595.184002,258.991991 594.736,260.752 C594.287998,262.512009 594.032,263.903995 593.968,264.928 L628.912,264.928 L628.912,268 L590.416,268 Z M686.512,239.872 C686.512,244.096021 685.920006,247.983982 684.736,251.536 C683.551994,255.088018 681.904011,258.159987 679.792,260.752 C677.679989,263.344013 675.184014,265.359993 672.304,266.8 C669.423986,268.240007 666.288017,268.96 662.896,268.96 C659.439983,268.96 656.272014,268.240007 653.392,266.8 C650.511986,265.359993 648.016011,263.344013 645.904,260.752 C643.791989,258.159987 642.144006,255.088018 640.96,251.536 C639.775994,247.983982 639.184,244.096021 639.184,239.872 C639.184,235.647979 639.775994,231.760018 640.96,228.208 C642.144006,224.655982 643.791989,221.584013 645.904,218.992 C648.016011,216.399987 650.511986,214.368007 653.392,212.896 C656.272014,211.423993 659.439983,210.688 662.896,210.688 C666.288017,210.688 669.423986,211.423993 672.304,212.896 C675.184014,214.368007 677.679989,216.399987 679.792,218.992 C681.904011,221.584013 683.551994,224.655982 684.736,228.208 C685.920006,231.760018 686.512,235.647979 686.512,239.872 Z M683.248,239.872 C683.248,236.031981 682.752005,232.512016 681.76,229.312 C680.767995,226.111984 679.376009,223.360012 677.584,221.056 C675.791991,218.751988 673.648012,216.976006 671.152,215.728 C668.655988,214.479994 665.904015,213.856 662.896,213.856 C659.887985,213.856 657.120013,214.479994 654.592,215.728 C652.063987,216.976006 649.904009,218.751988 648.112,221.056 C646.319991,223.360012 644.928005,226.111984 643.936,229.312 C642.943995,232.512016 642.448,236.031981 642.448,239.872 C642.448,243.712019 642.943995,247.231984 643.936,250.432 C644.928005,253.632016 646.319991,256.367989 648.112,258.64 C649.904009,260.912011 652.063987,262.671994 654.592,263.92 C657.120013,265.168006 659.887985,265.792 662.896,265.792 C665.904015,265.792 668.655988,265.168006 671.152,263.92 C673.648012,262.671994 675.791991,260.912011 677.584,258.64 C679.376009,256.367989 680.767995,253.632016 681.76,250.432 C682.752005,247.231984 683.248,243.712019 683.248,239.872 Z M727.696,264.928 L727.696,268 L698.608,268 L698.608,264.928 L712.24,264.928 L712.24,217.696 C711.727997,218.464004 710.848006,219.311995 709.6,220.24 C708.351994,221.168005 706.976008,222.031996 705.472,222.832 C703.967992,223.632004 702.400008,224.319997 700.768,224.896 C699.135992,225.472003 697.680006,225.76 696.4,225.76 L696.4,222.304 C698.064008,222.304 699.807991,221.856004 701.632,220.96 C703.456009,220.063996 705.135992,219.072005 706.672,217.984 C708.208008,216.895995 709.503995,215.856005 710.56,214.864 C711.616005,213.871995 712.176,213.312001 712.24,213.184 L715.504,213.184 L715.504,264.928 L727.696,264.928 Z M780.592,249.664 C780.592,252.544014 779.968006,255.167988 778.72,257.536 C777.471994,259.904012 775.776011,261.903992 773.632,263.536 C771.487989,265.168008 769.008014,266.431996 766.192,267.328 C763.375986,268.224004 760.400016,268.672 757.264,268.672 C753.807983,268.672 750.688014,268.144005 747.904,267.088 C745.119986,266.031995 742.73601,264.624009 740.752,262.864 C738.76799,261.103991 737.232005,259.072012 736.144,256.768 C735.055995,254.463988 734.512,252.032013 734.512,249.472 C734.512,247.167988 734.943996,245.02401 735.808,243.04 C736.672004,241.05599 737.823993,239.296008 739.264,237.76 C740.704007,236.223992 742.335991,234.928005 744.16,233.872 C745.984009,232.815995 747.823991,232.000003 749.68,231.424 C747.951991,230.783997 746.320008,230.000005 744.784,229.072 C743.247992,228.143995 741.904006,227.040006 740.752,225.76 C739.599994,224.479994 738.688003,223.056008 738.016,221.488 C737.343997,219.919992 737.008,218.208009 737.008,216.352 C737.008,213.663987 737.615994,211.29601 738.832,209.248 C740.048006,207.19999 741.63199,205.488007 743.584,204.112 C745.53601,202.735993 747.743988,201.680004 750.208,200.944 C752.672012,200.207996 755.151988,199.84 757.648,199.84 C760.144012,199.84 762.623988,200.207996 765.088,200.944 C767.552012,201.680004 769.74399,202.735993 771.664,204.112 C773.58401,205.488007 775.151994,207.19999 776.368,209.248 C777.584006,211.29601 778.192,213.663987 778.192,216.352 C778.192,218.208009 777.840004,219.919992 777.136,221.488 C776.431996,223.056008 775.504006,224.463994 774.352,225.712 C773.199994,226.960006 771.856008,228.063995 770.32,229.024 C768.783992,229.984005 767.152009,230.783997 765.424,231.424 C767.536011,232.064003 769.519991,232.959994 771.376,234.112 C773.232009,235.264006 774.831993,236.623992 776.176,238.192 C777.520007,239.760008 778.591996,241.50399 779.392,243.424 C780.192004,245.34401 780.592,247.423989 780.592,249.664 Z M777.328,249.376 C777.328,246.751987 776.720006,244.41601 775.504,242.368 C774.287994,240.31999 772.72001,238.608007 770.8,237.232 C768.87999,235.855993 766.752012,234.800004 764.416,234.064 C762.079988,233.327996 759.760012,232.96 757.456,232.96 C755.087988,232.96 752.736012,233.359996 750.4,234.16 C748.063988,234.960004 745.968009,236.079993 744.112,237.52 C742.255991,238.960007 740.752006,240.70399 739.6,242.752 C738.447994,244.80001 737.872,247.071988 737.872,249.568 C737.872,252.128013 738.479994,254.41599 739.696,256.432 C740.912006,258.44801 742.463991,260.143993 744.352,261.52 C746.240009,262.896007 748.367988,263.951996 750.736,264.688 C753.104012,265.424004 755.439988,265.792 757.744,265.792 C760.112012,265.792 762.463988,265.408004 764.8,264.64 C767.136012,263.871996 769.231991,262.784007 771.088,261.376 C772.944009,259.967993 774.447994,258.24001 775.6,256.192 C776.752006,254.14399 777.328,251.872012 777.328,249.376 Z M740.272,216.64 C740.272,218.816011 740.799995,220.735992 741.856,222.4 C742.912005,224.064008 744.271992,225.471994 745.936,226.624 C747.600008,227.776006 749.45599,228.639997 751.504,229.216 C753.55201,229.792003 755.56799,230.08 757.552,230.08 C759.53601,230.08 761.55199,229.776003 763.6,229.168 C765.64801,228.559997 767.519992,227.680006 769.216,226.528 C770.912008,225.375994 772.287995,223.952008 773.344,222.256 C774.400005,220.559992 774.928,218.624011 774.928,216.448 C774.928,214.271989 774.432005,212.352008 773.44,210.688 C772.447995,209.023992 771.136008,207.616006 769.504,206.464 C767.871992,205.311994 766.000011,204.432003 763.888,203.824 C761.775989,203.215997 759.632011,202.912 757.456,202.912 C755.215989,202.912 753.07201,203.215997 751.024,203.824 C748.97599,204.432003 747.152008,205.327994 745.552,206.512 C743.951992,207.696006 742.672005,209.135992 741.712,210.832 C740.751995,212.528008 740.272,214.463989 740.272,216.64 Z" id="2018" fill="#000000"></path>
            <path d="M547.222222,198 L547.222222,268" id="Line" stroke-opacity="0.303640172" stroke="#323C4B" stroke-width="2" stroke-linecap="square"></path>
        </g>
    </g>
</svg>